# xmcd
#
# Track frame offsets:
#	150
#	24708
#	49439
#	76392
#	110090
#	115696
#	145103
#	177784
#	200994
#	238725
#
# Disc length: 3530 seconds
#
# Revision: 2
# Processed by: cddbd v1.5.2PL0 Copyright (c) Steve Scherf et al.
# Submitted via: audiograbber 1.83.01
#
DISCID=900dc80a
DTITLE=Portico Quartet - Isla
DYEAR=2010
DGENRE=Jazz
TTITLE0=Paper Scissors Stone
TTITLE1=The Visitor
TTITLE2=Dawn Patrol
TTITLE3=Line
TTITLE4=Life Mask (Interlude)
TTITLE5=Clipper
TTITLE6=Life Mask
TTITLE7=Isla
TTITLE8=Shed Song (Improv. No 1)
TTITLE9=Subo's Mental Meltdown
EXTD=
EXTT0=
EXTT1=
EXTT2=
EXTT3=
EXTT4=
EXTT5=
EXTT6=
EXTT7=
EXTT8=
EXTT9=
PLAYORDER=
